HIERARCHY
ROOT hip
{
	OFFSET 0.000000 0.000000 0.000000 
	CHANNELS 6 Xposition Yposition Zposition Xrotation Zrotation Yrotation
	JOINT abdomen
	{
		OFFSET 0.000000 3.402643 0.000000 
		CHANNELS 3 Xrotation Zrotation Yrotation
		JOINT chest
		{
			OFFSET 0.000000 8.438565 -0.680529 
			CHANNELS 3 Xrotation Zrotation Yrotation
			JOINT neck
			{
				OFFSET 0.000000 10.207942 -0.272212 
				CHANNELS 3 Xrotation Zrotation Yrotation
				JOINT head
				{
					OFFSET 0.000000 3.130431 0.000000 
					CHANNELS 3 Xrotation Zrotation Yrotation
					End Site
					{
						OFFSET 0.000000 3.130435 0.000000 
					}
				}
			}
			JOINT lCollar
			{
				OFFSET 3.470700 6.669187 -0.816635 
				CHANNELS 3 Yrotation Zrotation Xrotation
				JOINT lShldr
				{
					OFFSET 3.198488 0.000000 0.000000 
					CHANNELS 3 Zrotation Yrotation Xrotation
					JOINT lForeArm
					{
						OFFSET 10.139888 0.000000 0.000000 
						CHANNELS 3 Yrotation Zrotation Xrotation
						JOINT lHand
						{
							OFFSET 8.370511 0.000000 0.000000 
							CHANNELS 3 Zrotation Yrotation Xrotation
							End Site
							{
								OFFSET 4.083176 0.000000 0.000000 
							}
						}
					}
				}
			}
			JOINT rCollar
			{
				OFFSET -3.470700 6.669187 -0.816635 
				CHANNELS 3 Yrotation Zrotation Xrotation
				JOINT rShldr
				{
					OFFSET -3.198488 0.000000 0.000000 
					CHANNELS 3 Zrotation Yrotation Xrotation
					JOINT rForeArm
					{
						OFFSET -10.139888 0.000000 0.000000 
						CHANNELS 3 Yrotation Zrotation Xrotation
						JOINT rHand
						{
							OFFSET -8.370511 0.000000 0.000000 
							CHANNELS 3 Zrotation Yrotation Xrotation
							End Site
							{
								OFFSET -4.083176 0.000000 0.000000 
							}
						}
					}
				}
			}
		}
	}
	JOINT lThigh
	{
		OFFSET 5.308129 -1.633274 1.361059 
		CHANNELS 3 Xrotation Zrotation Yrotation
		JOINT lShin
		{
			OFFSET -2.041588 -20.007561 0.000000 
			CHANNELS 3 Xrotation Zrotation Yrotation
			JOINT lFoot
			{
				OFFSET 0.000000 -19.190928 -1.224953 
				CHANNELS 3 Xrotation Yrotation Zrotation
				End Site
				{
					OFFSET 0.000000 -2.449906 4.627600 
				}
			}
		}
	}
	JOINT rThigh
	{
		OFFSET -5.308129 -1.633274 1.361059 
		CHANNELS 3 Xrotation Zrotation Yrotation
		JOINT rShin
		{
			OFFSET 2.041588 -20.007561 0.000000 
			CHANNELS 3 Xrotation Zrotation Yrotation
			JOINT rFoot
			{
				OFFSET 0.000000 -19.190928 -1.224953 
				CHANNELS 3 Xrotation Yrotation Zrotation
				End Site
				{
					OFFSET 0.000000 -2.449906 4.627600 
				}
			}
		}
	}
}
MOTION
Frames: 18
Frame Time: 0.016667
-1.021698 44.743523 -6.023736 -4.387303 29.808121 -34.375557 2.275542 -14.068680 5.485003 0.000000 0.000000 0.000000 -25.938063 -3.275418 23.977135 0.000000 0.000000 0.000000 0.000000 0.000000 0.000000 -52.401428 24.723703 42.709988 -1.897427 3.007969 -0.879765 0.857123 -11.424186 -15.873462 0.000000 0.000000 0.000000 64.724777 34.686970 79.092850 68.849319 -5.285029 1.848449 24.353863 15.471524 -4.762161 -30.567060 -13.717937 9.925569 30.297520 -9.925378 4.083612 -10.289041 12.710892 -2.786770 -61.548332 -35.780327 21.730078 50.118263 2.502296 6.260677 -11.359295 5.534613 12.066707 
-1.895018 44.620365 -6.258862 -8.443174 28.293371 -45.843216 2.106990 -13.720707 5.388016 0.000000 0.000000 0.000000 -24.614882 -3.006554 22.835653 0.000000 0.000000 0.000000 0.000000 0.000000 0.000000 -53.803726 23.958578 42.471500 -2.021898 3.217458 -1.749633 -0.077310 -11.237519 -16.067190 0.000000 0.000000 0.000000 63.636585 32.563953 76.483803 64.804955 -4.915229 1.680885 23.660122 14.462719 -4.655692 -29.196371 -13.338700 8.734671 29.274679 -9.887252 3.987105 -9.986422 12.587629 -2.716574 -59.939602 -36.874516 19.035528 49.369602 3.049004 4.907697 -10.591670 5.049193 11.565803 
-2.762774 44.564384 -7.333762 -14.540566 24.052359 -65.159599 1.752886 -13.195269 5.395676 0.000000 0.000000 0.000000 -22.414917 -2.335745 20.896967 0.000000 0.000000 0.000000 0.000000 0.000000 0.000000 -56.274258 22.573336 42.184860 -2.439804 3.577706 -3.382406 -1.789253 -11.204453 -16.394260 0.000000 0.000000 0.000000 62.422287 29.180002 72.360817 57.429775 -4.383983 1.237581 22.552567 12.947523 -4.502905 -27.278404 -13.190598 6.352260 27.511192 -10.089314 3.988289 -9.429416 12.533888 -2.206223 -57.150276 -38.698277 15.025275 48.271458 4.153006 2.592327 -9.086772 4.050636 11.000741 
-3.630480 44.508400 -8.408597 -18.633139 18.273333 -83.269547 1.398941 -12.669853 5.403833 0.000000 0.000000 0.000000 -20.233789 -1.588394 18.981928 0.000000 0.000000 0.000000 0.000000 0.000000 0.000000 -58.712612 21.160986 41.964199 -2.840847 3.944127 -5.004800 -3.500319 -11.188400 -16.712002 0.000000 0.000000 0.000000 61.529575 25.725502 68.446640 50.055458 -3.791489 0.868494 21.461102 11.433544 -4.329801 -25.377262 -12.966944 3.980127 25.732544 -10.293299 3.996851 -8.863537 12.470707 -1.692283 -54.145618 -40.368752 10.797233 47.122440 5.214081 0.229900 -7.614839 3.053931 10.439156 
-3.316962 44.788326 -9.875416 -21.118711 10.732909 -102.688156 0.784731 -12.315843 5.596635 0.000000 0.000000 0.000000 -18.015705 -0.831799 16.857185 0.000000 0.000000 0.000000 0.000000 0.000000 0.000000 -61.326675 19.424047 41.824200 -3.194560 4.445753 -6.705617 -5.483638 -11.209472 -17.041729 0.000000 0.000000 0.000000 61.324036 21.875525 64.583679 41.270084 -3.048646 0.522596 20.069977 9.679936 -4.552569 -23.640091 -12.753595 2.009352 24.675543 -10.047950 3.713948 -8.689577 12.449791 -1.236125 -51.133427 -42.035229 5.821034 46.013184 6.122605 -2.487295 -6.276963 2.020978 9.517386 
-3.003381 45.068249 -11.342130 -20.929497 2.814268 -121.459427 0.161106 -11.961717 5.799172 0.000000 0.000000 0.000000 -15.830078 0.000000 14.755858 0.000000 0.000000 0.000000 0.000000 0.000000 0.000000 -63.915054 17.695223 41.765984 -3.542833 4.954919 -8.407719 -7.459980 -11.232264 -17.377834 0.000000 0.000000 0.000000 61.408024 18.018188 60.838406 32.502110 -2.267543 0.288828 18.698364 7.930315 -4.733645 -21.917797 -12.458241 0.026035 23.596903 -9.830841 3.440013 -8.507011 12.436308 -0.797704 -47.879486 -43.504665 0.593370 44.848228 6.973856 -5.204758 -4.952192 0.980045 8.625078 
-1.452646 45.426537 -12.058715 -19.329149 -4.057145 -137.691910 -0.706520 -12.405104 6.399294 0.000000 0.000000 0.000000 -14.070574 0.768537 13.692771 0.000000 0.000000 0.000000 0.000000 0.000000 0.000000 -65.928841 16.384130 41.056877 -2.607567 4.695641 -9.547170 -8.360881 -11.169042 -15.982667 0.000000 0.000000 0.000000 62.429501 15.466292 58.581467 25.680143 -1.430995 1.188934 17.539982 5.880122 -5.099622 -21.221474 -12.642066 -0.838699 23.232941 -9.810189 3.208918 -8.833845 12.432612 -0.473251 -46.040314 -44.780281 -3.265321 44.041218 7.548323 -6.754845 -3.850306 0.324424 7.824613 
0.098097 45.784817 -12.775202 -15.831115 -10.199603 -154.331436 -1.586011 -12.845888 7.011407 0.000000 0.000000 0.000000 -12.320777 1.581755 12.651560 0.000000 0.000000 0.000000 0.000000 0.000000 0.000000 -67.916481 15.053734 40.399704 -1.681534 4.420301 -10.676547 -9.251512 -11.075891 -14.584413 0.000000 0.000000 0.000000 63.534073 12.965469 56.301456 18.840458 -0.721284 2.181948 16.391144 3.825282 -5.436468 -20.525105 -12.821011 -1.747336 22.839817 -9.784304 3.022681 -9.116133 12.419955 -0.145539 -44.071522 -45.985111 -7.264633 43.205101 8.112266 -8.319447 -2.790008 -0.358278 7.074461 
1.744003 45.986359 -12.288151 -13.134459 -13.929119 -165.877518 -2.198983 -13.724965 7.781716 0.000000 0.000000 0.000000 -11.796086 2.020834 12.557081 0.000000 0.000000 0.000000 0.000000 0.000000 0.000000 -68.655205 14.663637 38.283146 -0.362359 3.723744 -11.135179 -9.510151 -10.696428 -12.818933 0.000000 0.000000 0.000000 64.405403 12.322833 56.634342 17.951916 -0.098077 3.075471 15.543740 2.225328 -6.467114 -20.706343 -13.180254 -1.592036 22.659163 -9.742696 3.217636 -9.109221 12.582012 0.103241 -44.273357 -46.781570 -8.807838 43.014610 8.328966 -8.883986 -2.110130 -0.917965 6.542713 
3.389858 46.187901 -11.801049 170.323410 -162.951599 2.224276 -2.828348 -14.608219 8.558410 0.000000 0.000000 0.000000 -11.262657 2.460143 12.472741 0.000000 0.000000 0.000000 0.000000 0.000000 0.000000 -69.367104 14.233996 36.166973 0.957579 3.023841 -11.569354 -9.753643 -10.319422 -11.044416 0.000000 0.000000 0.000000 65.271210 11.662729 56.950653 17.048248 0.504144 3.968002 14.732100 0.609012 -7.462929 -20.906921 -13.544500 -1.443249 22.498018 -9.706246 3.420640 -9.095257 12.747010 0.354085 -44.468830 -47.611141 -10.374884 42.807976 8.572408 -9.430140 -1.435012 -1.488880 6.015740 
4.531916 46.406235 -10.854933 171.520569 -161.032181 -4.131845 -3.523394 -15.316950 9.447856 0.000000 0.000000 0.000000 -11.789557 2.186254 13.261876 0.000000 0.000000 0.000000 0.000000 0.000000 0.000000 -68.721779 15.316117 33.835747 1.363928 2.407604 -11.229573 -9.090613 -9.281820 -10.496231 0.000000 0.000000 0.000000 65.210464 12.392554 58.769985 20.467936 0.746345 3.933985 15.033075 2.635096 -8.526143 -21.950125 -14.168886 -0.120432 22.423479 -9.624728 3.715701 -8.669573 12.411565 -0.135564 -46.725830 -47.584049 -9.363776 42.699112 8.640196 -9.234157 -0.900255 -1.765980 5.715923 
5.673836 46.624554 -9.908937 -7.041096 -20.744360 169.382553 -4.235786 -16.008026 10.365124 0.000000 0.000000 0.000000 -12.318818 1.932543 14.061045 0.000000 0.000000 0.000000 0.000000 0.000000 0.000000 -68.117882 16.419895 31.494347 1.758072 1.800191 -10.881417 -8.429386 -8.243783 -9.922235 0.000000 0.000000 0.000000 65.168900 13.114860 60.592178 23.888453 0.979021 3.883745 15.302327 4.664538 -9.584722 -23.022690 -14.773210 1.205840 22.364828 -9.556345 4.007488 -8.240312 12.070941 -0.601661 -48.963757 -47.547142 -8.385179 42.596939 8.720650 -9.015009 -0.400969 -2.067308 5.410584 
5.673836 46.714127 -9.981718 -6.260753 -19.513216 170.462860 -3.253056 -14.870765 9.733022 0.000000 0.000000 0.000000 -11.796345 1.920723 13.181677 0.000000 0.000000 0.000000 0.000000 0.000000 0.000000 -67.836578 15.933562 33.916000 0.589492 2.740940 -10.745150 -8.748186 -8.248001 -10.595936 0.000000 0.000000 0.000000 65.581764 11.842767 60.045784 23.160940 -0.033372 4.104557 14.603713 4.682034 -10.504309 -20.980633 -13.102543 1.028942 21.264780 -8.913834 3.654161 -7.591908 11.007010 -1.655096 -44.174324 -45.285355 -10.094105 40.271774 7.850883 -8.487218 -0.539595 -1.879273 5.399095 
5.673852 46.803726 -10.054493 -5.466434 -18.289528 171.550476 -2.293830 -13.726752 9.138092 0.000000 0.000000 0.000000 -11.269230 1.927395 12.302309 0.000000 0.000000 0.000000 0.000000 0.000000 0.000000 -67.575691 15.438164 36.320805 -0.584507 3.675653 -10.596207 -9.063117 -8.246783 -11.251468 0.000000 0.000000 0.000000 66.014511 10.572819 59.498619 22.439842 -1.039012 4.310025 13.897858 4.679360 -11.435802 -18.969833 -11.433187 0.911080 20.167198 -8.267353 3.286334 -6.946424 9.953833 -2.696825 -39.664894 -42.953823 -11.459394 37.936405 7.000854 -7.919292 -0.680625 -1.700451 5.395038 
5.780219 47.061249 -10.110476 175.826279 -163.935028 -6.455281 -0.686764 -11.715673 7.949213 0.000000 0.000000 0.000000 -10.473132 2.006008 10.631744 0.000000 0.000000 0.000000 0.000000 0.000000 0.000000 -66.850159 14.930650 40.781166 -2.760143 5.504077 -10.329753 -9.418537 -8.441767 -12.344132 0.000000 0.000000 0.000000 66.413086 7.949806 58.505161 21.875597 -3.417572 4.650295 12.940395 4.729080 -12.991347 -15.610223 -8.621299 0.935820 18.295835 -7.107472 2.323992 -6.023950 7.366416 -4.194713 -32.565781 -38.608086 -12.972837 33.971016 5.672709 -6.620407 -0.604235 -1.924139 5.685712 
5.886616 47.318775 -10.166455 177.180008 -166.114319 -4.438341 0.866931 -9.678123 6.835656 0.000000 0.000000 0.000000 -9.687998 2.102945 8.961182 0.000000 0.000000 0.000000 0.000000 0.000000 0.000000 -66.165543 14.371903 45.217838 -4.950777 7.313859 -9.996220 -9.774452 -8.635151 -13.438592 0.000000 0.000000 0.000000 66.862175 5.338126 57.503288 21.334787 -5.787287 4.965246 11.977609 4.740350 -14.559252 -12.273469 -5.800200 1.105520 16.404007 -5.966170 1.339171 -5.173286 4.736340 -5.662645 -25.975466 -34.177059 -13.750055 29.955379 4.427121 -5.214123 -0.526729 -2.138194 5.969788 
6.166530 47.609890 -10.183249 178.626556 -168.531418 -1.884565 2.646226 -7.501658 5.742640 0.000000 0.000000 0.000000 -9.069697 2.268435 6.939344 0.000000 0.000000 0.000000 0.000000 0.000000 0.000000 -65.069016 14.185116 50.165211 -7.593174 9.469857 -9.611727 -10.087312 -8.948350 -14.533640 0.000000 0.000000 0.000000 66.885887 1.247250 56.097160 21.819170 -9.337731 5.774203 11.128532 5.332268 -16.886452 -9.309896 -2.625426 1.757918 15.562717 -4.667031 0.363353 -4.804277 1.485248 -7.229557 -19.968575 -29.154028 -13.780951 26.324745 3.075464 -3.800110 -1.061621 -2.727454 6.401714 
6.446469 47.900974 -10.200039 -179.839569 -170.869827 0.711262 4.378971 -5.284873 4.716831 0.000000 0.000000 0.000000 -8.451256 2.451893 4.916792 0.000000 0.000000 0.000000 0.000000 0.000000 0.000000 -63.998089 13.911523 55.114391 -10.279958 11.620080 -9.120012 -10.389153 -9.254282 -15.621263 0.000000 0.000000 0.000000 67.012047 -2.843227 54.677437 22.365242 -12.876954 6.633173 10.253702 5.884717 -19.228559 -6.316169 0.497728 2.568512 14.705318 -3.379000 -0.623249 -4.490850 -1.799176 -8.763113 -14.227494 -24.166107 -13.227960 22.683182 1.806329 -2.314238 -1.600176 -3.375533 6.817297 
